<svg width="60.000000" height="36.672852" viewBox="0 0 60 36.6729" fill="none" xmlns="http://www.w3.org/2000/svg" xmlns:xlink="http://www.w3.org/1999/xlink">
	<desc>
			Created with Pixso.
	</desc>
	<defs/>
	<path id="形状结合" d="M59.36 0C59.71 0 60 0.26 60 0.59L60 36.08C60 36.4 59.71 36.67 59.36 36.67L51.23 36.67C50.89 36.67 50.6 36.4 50.6 36.08L50.6 0.59C50.6 0.26 50.89 0 51.23 0L59.36 0ZM24.09 0C30.22 0 36.63 0.26 39.79 3.29C42.9 6.27 43.24 12.2 43.25 17.96L43.25 36.08C43.25 36.4 42.97 36.67 42.62 36.67L34.5 36.67C34.15 36.67 33.86 36.4 33.86 36.08L33.86 17.65C33.85 14.43 33.66 11.13 31.93 9.46C30.43 8.03 27.65 7.7 24.75 7.63L10.02 7.63C9.67 7.63 9.39 7.9 9.39 8.22L9.39 36.08C9.39 36.4 9.1 36.67 8.76 36.67L0.62 36.67C0.28 36.67 0 36.4 0 36.08L0 0.59C0 0.26 0.28 0 0.62 0L24.09 0ZM25.91 14.13C26.25 14.13 26.53 14.39 26.53 14.72L26.53 36.08C26.53 36.4 26.25 36.67 25.91 36.67L17.37 36.67C17.02 36.67 16.74 36.4 16.74 36.08L16.74 14.72C16.74 14.39 17.02 14.13 17.37 14.13L25.91 14.13Z" fill="#FF4C0D" fill-opacity="1.000000" fill-rule="evenodd"/>
</svg>
